<?xml version="1.0" encoding="UTF-8" standalone="no"?>
<svg width="80px" height="80px" viewBox="0 0 80 80" version="1.1" xmlns="http://www.w3.org/2000/svg" xmlns:xlink="http://www.w3.org/1999/xlink">
    <!-- Generator: Sketch 3.8.3 (29802) - http://www.bohemiancoding.com/sketch -->
    <title>Logo</title>
    <desc>Created with Sketch.</desc>
    <defs></defs>
    <g id="Page-1" stroke="none" stroke-width="1" fill="none" fill-rule="evenodd">
        <g id="Welcome" transform="translate(-140.000000, -113.000000)" stroke="#FFFFFF" stroke-width="3">
            <g id="Logo" transform="translate(142.000000, 115.000000)">
                <path d="M38,75.6252441 C58.7798485,75.6252441 75.6252441,58.7798485 75.6252441,38 C75.6252441,17.2201515 58.7798485,0.374755859 38,0.374755859 C17.2201515,0.374755859 0.374755859,17.2201515 0.374755859,38 C0.374755859,58.7798485 17.2201515,75.6252441 38,75.6252441 Z" id="Oval-1"></path>
                <ellipse id="Oval-2" cx="38" cy="14.6005293" rx="2.97834095" ry="2.97834095"></ellipse>
                <ellipse id="Oval-2-Copy" cx="18.6407838" cy="22.0463817" rx="2.97834095" ry="2.97834095"></ellipse>
                <ellipse id="Oval-2-Copy-2" cx="57.3592162" cy="22.0463817" rx="2.97834095" ry="2.97834095"></ellipse>
                <polygon id="Path-1" points="20.1299543 31.0906024 20.1299543 48.6336879 55.8323523 48.6336879 55.8323523 30.9639415 45.0866482 38.1043592 37.9811532 24.1888964 31.3457542 38.3158191"></polygon>
                <rect id="Rectangle-2" x="20.1299543" y="53.8238637" width="35.7400915" height="4.46751143"></rect>
            </g>
        </g>
    </g>
</svg>