<?xml version="1.0" encoding="UTF-8"?>
<svg width="99px" height="93px" viewBox="0 0 99 93" version="1.1" xmlns="http://www.w3.org/2000/svg" xmlns:xlink="http://www.w3.org/1999/xlink">
    <!-- Generator: Sketch 45.2 (43514) - http://www.bohemiancoding.com/sketch -->
    <title>Headphones</title>
    <desc>Created with Sketch.</desc>
    <defs></defs>
    <g id="Page-1" stroke="none" stroke-width="1" fill="none" fill-rule="evenodd">
        <g id="Headphones" fill-rule="nonzero" fill="#FFFFFF">
            <path d="M88.5136674,53.9179954 L86.5968109,53.9179954 L86.5968109,38.3350797 C86.5968109,17.7006834 70.0216401,0.9 49.6127563,0.9 C29.2038724,0.9 12.6287016,17.7006834 12.6287016,38.3350797 L12.6287016,53.9179954 L10.7118451,53.9179954 C4.87107062,53.9179954 0,58.6312073 0,64.5170843 L0,82.2649203 C0,88.1733485 4.87107062,92.9316629 10.7118451,92.9316629 L22.6865604,92.9316629 C23.9268793,92.9316629 25.0318907,91.961959 25.0318907,90.6990888 L25.0318907,56.0829157 C25.0318907,54.8425968 23.9268793,53.9179954 22.6865604,53.9179954 L17.1389522,53.9179954 L17.1389522,38.3350797 C17.1389522,20.1813212 31.7070615,5.41025057 49.6127563,5.41025057 C67.518451,5.41025057 82.0865604,20.1813212 82.0865604,38.3350797 L82.0865604,53.9179954 L76.5389522,53.9179954 C75.2986333,53.9179954 74.1936219,54.8425968 74.1936219,56.0829157 L74.1936219,90.6990888 C74.1936219,91.9394077 75.2986333,92.9316629 76.5389522,92.9316629 L88.5136674,92.9316629 C94.3544419,92.9316629 99,88.1733485 99,82.2649203 L99,64.5170843 C99,58.6312073 94.3544419,53.9179954 88.5136674,53.9179954 Z M20.5216401,88.4214123 L10.7118451,88.4214123 C7.35170843,88.4214123 4.51025057,85.6701595 4.51025057,82.2649203 L4.51025057,64.5170843 C4.51025057,61.1118451 7.35170843,58.428246 10.7118451,58.428246 L20.5216401,58.428246 L20.5216401,88.4214123 Z M94.4897494,82.2649203 C94.4897494,85.6701595 91.8738041,88.4214123 88.5136674,88.4214123 L78.7038724,88.4214123 L78.7038724,58.428246 L88.5136674,58.428246 C91.8738041,58.428246 94.4897494,61.1118451 94.4897494,64.5170843 L94.4897494,82.2649203 Z" id="Shape"></path>
        </g>
    </g>
</svg>