<?xml version="1.0" encoding="utf-8"?>
<!-- Generator: Adobe Illustrator 16.0.4, SVG Export Plug-In . SVG Version: 6.00 Build 0)  -->
<!DOCTYPE svg PUBLIC "-//W3C//DTD SVG 1.1//EN" "http://www.w3.org/Graphics/SVG/1.1/DTD/svg11.dtd">
<svg version="1.1" id="Layer_1" xmlns="http://www.w3.org/2000/svg" xmlns:xlink="http://www.w3.org/1999/xlink" x="0px" y="0px"
	 width="64px" height="64px" viewBox="0 0 64 64" enable-background="new 0 0 64 64" xml:space="preserve">
<g>
	<path fill="#FFFFFF" d="M32,2.088c16.493,0,29.912,13.418,29.912,29.912c0,16.493-13.419,29.912-29.912,29.912
		C15.506,61.912,2.087,48.493,2.087,32C2.087,15.506,15.506,2.088,32,2.088 M32,0.354C14.522,0.354,0.354,14.522,0.354,32
		c0,17.477,14.169,31.646,31.646,31.646c17.479,0,31.646-14.169,31.646-31.646C63.646,14.522,49.479,0.354,32,0.354L32,0.354z"/>
	<g>
		<path fill="#FFFFFF" d="M31.979,17.847L25.3,31.42l-10.903-8.474v21.192h4.646h3.366h19.255h3.311h3.956V22.913l-10.353,8.285
			L31.979,17.847z M31.982,21.903l5.161,10.442l-5.248,4.2l-5.149-4.002L31.982,21.903z M16.191,42.345V26.612l8.3,6.451
			l-4.566,9.281H16.191z M21.923,42.345l4.014-8.157l4.518,3.511l-5.804,4.646H21.923z M27.521,42.345l4.391-3.516l4.522,3.516
			H27.521z M39.356,42.345l-6.005-4.665l4.605-3.687l4.129,8.352H39.356z M47.137,26.646v15.698h-3.049l-4.696-9.5L47.137,26.646z"
			/>
		<path fill="#FFFFFF" d="M32,16.059c1.903,0,3.45-1.547,3.45-3.45c0-1.902-1.547-3.451-3.45-3.451s-3.451,1.549-3.451,3.451
			C28.549,14.512,30.097,16.059,32,16.059z M32,10.952c0.914,0,1.656,0.744,1.656,1.656c0,0.913-0.743,1.657-1.656,1.657
			s-1.657-0.744-1.657-1.657C30.343,11.696,31.086,10.952,32,10.952z"/>
		<path fill="#FFFFFF" d="M49.286,14.28c-1.903,0-3.452,1.547-3.452,3.45s1.549,3.449,3.452,3.449c1.902,0,3.45-1.546,3.45-3.449
			S51.188,14.28,49.286,14.28z M49.286,19.387c-0.915,0-1.658-0.742-1.658-1.656s0.743-1.657,1.658-1.657
			c0.913,0,1.656,0.743,1.656,1.657S50.199,19.387,49.286,19.387z"/>
		<path fill="#FFFFFF" d="M18.166,17.73c0-1.903-1.548-3.45-3.452-3.45c-1.902,0-3.451,1.547-3.451,3.45s1.548,3.449,3.451,3.449
			C16.618,21.18,18.166,19.634,18.166,17.73z M13.058,17.73c0-0.914,0.744-1.657,1.657-1.657c0.915,0,1.658,0.743,1.658,1.657
			s-0.743,1.656-1.658,1.656C13.802,19.387,13.058,18.645,13.058,17.73z"/>
		<path fill="#FFFFFF" d="M14.397,53.109h34.534v-6.28H14.397V53.109z M16.191,48.623h30.946v2.689H16.191V48.623z"/>
	</g>
</g>
</svg>
